<svg xmlns="http://www.w3.org/2000/svg" width="74.522" height="55.891" viewBox="181.95 4619 74.522 55.891"><g data-name="Group 23077"><path d="M196.669 4639.7a3.912 3.912 0 0 1 3.912 3.913v25.296a3.912 3.912 0 0 1-3.912 3.913h-8.736a3.912 3.912 0 0 1-3.913-3.913v-25.296a3.912 3.912 0 0 1 3.913-3.912h8.736m0-2.07h-8.736a5.982 5.982 0 0 0-5.983 5.982v25.296a5.982 5.982 0 0 0 5.983 5.983h8.736a5.982 5.982 0 0 0 5.982-5.983v-25.296a5.982 5.982 0 0 0-5.982-5.982Zm53.428-16.56a4.326 4.326 0 0 1 4.305 4.305v43.14a4.326 4.326 0 0 1-4.305 4.306h-10.02a4.326 4.326 0 0 1-4.305-4.306v-43.14a4.326 4.326 0 0 1 4.306-4.306h10.019m0-2.07h-10.02a6.376 6.376 0 0 0-6.375 6.376v43.14a6.376 6.376 0 0 0 6.376 6.376h10.019a6.376 6.376 0 0 0 6.375-6.376v-43.14a6.376 6.376 0 0 0-6.375-6.376Z" fill="#006eff" fill-rule="evenodd" data-name="Path 29043"/><path d="M190.025 4668.736a2.019 2.019 0 1 1 0 .1z" fill="#006eff" fill-rule="evenodd" data-name="Ellipse 866"/><path d="M194.37 4639.701v2.07h-4.14v-2.07h4.14m0-2.07h-4.14a2.07 2.07 0 0 0-2.07 2.07v2.07a2.07 2.07 0 0 0 2.07 2.07h4.14a2.07 2.07 0 0 0 2.07-2.07v-2.07a2.07 2.07 0 0 0-2.07-2.07Z" fill="#006eff" fill-rule="evenodd" data-name="Path 29044"/><g data-name="Group 22821"><path d="M240.18 4627.28a3.871 3.871 0 0 1 3.871 3.871v29.52a3.871 3.871 0 0 1-3.87 3.87h-41.94a3.871 3.871 0 0 1-3.87-3.87v-29.52a3.871 3.871 0 0 1 3.87-3.87h41.94m0-2.07h-41.94a5.962 5.962 0 0 0-5.94 5.94v29.52a5.962 5.962 0 0 0 5.94 5.94h41.94a5.962 5.962 0 0 0 5.94-5.94v-29.52a5.962 5.962 0 0 0-5.94-5.94Z" fill="#006eff" fill-rule="evenodd" data-name="Path 29045"/></g><path d="M191.034 4638.558h4.542a4.542 4.542 0 0 1 4.541 4.541v23.718h-9.083v-28.26z" fill="#fff" fill-rule="evenodd" data-name="Rectangle 5564"/><path d="M235.846 4625.21h7.307a6 6 0 0 1 6 6v37.028h-13.307v-43.028z" fill="#fff" fill-rule="evenodd" data-name="Rectangle 5565"/><path d="M208.862 4672.822h20.7v2.07h-20.7v-2.07Zm6.21-6.21h2.07v6.21h-2.07v-6.21Zm6.21 0h2.07v6.21h-2.07v-6.21Z" fill="#006eff" fill-rule="evenodd" data-name="Path 29046"/><path d="M240.488 4667.222a1.01.505 0 1 1 0 .1z" fill="#006eff" fill-rule="evenodd" data-name="Ellipse 867"/><path d="M244.525 4667.222a.505.505 0 1 1 0 .1z" fill="#006eff" fill-rule="evenodd" data-name="Ellipse 868"/><path d="M248.563 4667.222a.505.505 0 1 1 0 .1z" fill="#006eff" fill-rule="evenodd" data-name="Ellipse 869"/><path d="M240.488 4663.185a1.01.505 0 1 1 0 .1z" fill="#006eff" fill-rule="evenodd" data-name="Ellipse 870"/><path d="M244.525 4663.185a.505.505 0 1 1 0 .1z" fill="#006eff" fill-rule="evenodd" data-name="Ellipse 871"/><path d="M248.563 4663.185a.505.505 0 1 1 0 .1z" fill="#006eff" fill-rule="evenodd" data-name="Ellipse 872"/><path d="M240.488 4659.653a1.01 1.01 0 1 1 0 .1z" fill="#006eff" fill-rule="evenodd" data-name="Ellipse 873"/><path d="M244.525 4659.653a.505 1.01 0 1 1 0 .1z" fill="#006eff" fill-rule="evenodd" data-name="Ellipse 874"/><path d="M248.563 4659.653a.505 1.01 0 1 1 0 .1z" fill="#006eff" fill-rule="evenodd" data-name="Ellipse 875"/><path d="M244.051 4627.28h2.07v12.42h-2.07v-12.42Z" fill="#006eff" fill-rule="evenodd" data-name="Path 29047"/><path d="M194.37 4639.701v2.07h-4.14v-2.07h4.14m0-2.07h-4.14a2.07 2.07 0 0 0-2.07 2.07v2.07a2.07 2.07 0 0 0 2.07 2.07h4.14a2.07 2.07 0 0 0 2.07-2.07v-2.07a2.07 2.07 0 0 0-2.07-2.07Z" fill="#006eff" fill-rule="evenodd" data-name="Path 29050"/></g></svg>