<svg version="1.0" xmlns="http://www.w3.org/2000/svg" viewBox="0 0 752 752" preserveAspectRatio="xMidYMid meet">
  <g transform="translate(0,752) scale(0.1,-0.1)">
    <path fill="#000" d="M4415 5430 c-92 -20 -148 -113 -125 -203 10 -37 83 -114 638 -669
    l627 -628 -2011 0 -2011 0 -43 -23 c-73 -38 -108 -129 -79 -204 15 -42 68 -92
    109 -103 22 -6 753 -10 2035 -10 l2000 0 -611 -604 c-354 -351 -618 -619 -628
    -639 -70 -149 79 -302 222 -228 21 11 374 358 804 788 843 845 803 799 778
    896 -10 37 -95 125 -788 820 -427 428 -788 784 -802 791 -35 18 -79 24 -115
    16z"></path>
  </g>
</svg>