<svg id="Layer_1" data-name="Layer 1" xmlns="http://www.w3.org/2000/svg" viewBox="0 0 56 56" fill="currentcolor">
    <path
          d="M42.15,42.42a7.2,7.2,0,0,1-1.58,5.81c.17,4.66-2.68,7.77-7.81,7.77H29.21c-6.65,0-12.55-3.53-15.36-3.53v.76A2.77,2.77,0,0,1,11.08,56H2.77A2.77,2.77,0,0,1,0,53.23V31.07A2.77,2.77,0,0,1,2.77,28.3h8.31a2.79,2.79,0,0,1,2.28,1.2,3.59,3.59,0,0,0,.69-.19c1.87-1,5-6,7-8,.86-.86,1.13-2.29,1.43-3.8.49-2.54,1.46-5.82,4-5.82,5.16,0,7.18,3,7.18,8A12.68,12.68,0,0,1,32,25.79H38a6.39,6.39,0,0,1,6.29,6.28A6.93,6.93,0,0,1,43,36.41,8.06,8.06,0,0,1,42.15,42.42ZM11.08,53.23V31.07H2.77V53.23ZM6.92,51.15A2.08,2.08,0,1,1,9,49.08,2.07,2.07,0,0,1,6.92,51.15ZM41.54,32.08A3.63,3.63,0,0,0,38,28.56H28.33C28.33,25,31,23.39,31,19.74c0-2.21,0-5.28-4.41-5.28-1.76,1.76-.88,6.16-3.52,8.81-2.93,2.93-5.93,8.81-9.19,8.81V49.7c3.69,0,9,3.53,15.36,3.53h3.52c3.31,0,5.67-1.6,5-6.14A4.14,4.14,0,0,0,39,41.72c1.87-.95,1.87-5.11.49-6.12C40.85,35.23,41.55,33.84,41.54,32.08Z"/>
</svg>
