<?xml version="1.0" encoding="utf-8"?>
<!-- Generator: Adobe Illustrator 25.2.3, SVG Export Plug-In . SVG Version: 6.00 Build 0)  -->
<svg version="1.1" id="Layer_1" xmlns="http://www.w3.org/2000/svg" xmlns:xlink="http://www.w3.org/1999/xlink" x="0px" y="0px"
	 viewBox="0 0 20 20" style="enable-background:new 0 0 20 20;" xml:space="preserve">
<style type="text/css">
	.st0{fill:#61AF53;}
</style>
<g>
	<path class="st0" d="M10,20C4.48,20,0,15.52,0,10S4.48,0,10,0s10,4.48,10,10S15.52,20,10,20z M16.26,7.88
		c0.25-0.25,0.25-0.66,0-0.91l-0.91-0.91c-0.25-0.25-0.66-0.25-0.91,0L8.39,12.1L5.56,9.28c-0.25-0.25-0.66-0.25-0.91,0l-0.91,0.91
		c-0.25,0.25-0.25,0.66,0,0.91l4.19,4.19c0.25,0.25,0.66,0.25,0.91,0L16.26,7.88z"/>
</g>
</svg>
