<?xml version="1.0" encoding="utf-8"?>
<!-- Generator: Adobe Illustrator 26.2.1, SVG Export Plug-In . SVG Version: 6.00 Build 0)  -->
<svg version="1.1" id="Layer_1" xmlns="http://www.w3.org/2000/svg" xmlns:xlink="http://www.w3.org/1999/xlink" x="0px" y="0px"
	 viewBox="0 0 16 16" style="enable-background:new 0 0 16 16;" xml:space="preserve">
<style type="text/css">
	.st0{fill:#999999;}
</style>
<g>
	<path class="st0" d="M8,0C3.6,0,0,3.6,0,8s3.6,8,8,8s8-3.6,8-8S12.4,0,8,0z M8,15c-3.9,0-7-3.1-7-7c0-3.9,3.1-7,7-7
		c3.9,0,7,3.1,7,7C15,11.9,11.9,15,8,15z"/>
	<path class="st0" d="M11.4,4.6c-0.2-0.2-0.5-0.2-0.7,0L8,7.3L5.4,4.6c-0.2-0.2-0.5-0.2-0.7,0s-0.2,0.5,0,0.7L7.3,8l-2.6,2.6
		c-0.2,0.2-0.2,0.5,0,0.7c0.1,0.1,0.2,0.1,0.4,0.1s0.3,0,0.4-0.1L8,8.7l2.6,2.6c0.1,0.1,0.2,0.1,0.4,0.1s0.3,0,0.4-0.1
		c0.2-0.2,0.2-0.5,0-0.7L8.7,8l2.6-2.6C11.5,5.2,11.5,4.8,11.4,4.6z"/>
</g>
</svg>
