<?xml version="1.0" encoding="UTF-8"?><svg xmlns="http://www.w3.org/2000/svg" viewBox="0 0 74.959 79.195"><defs><style>.d{fill:#00439c;}.e{fill:#006eff;}</style></defs><g id="a"/><g id="b"><g id="c"><g><path class="d" d="M31.828,65.562c-4.661,0-9.322-1.774-12.871-5.323-3.438-3.438-5.332-8.009-5.332-12.871s1.894-9.433,5.332-12.871c7.098-7.097,18.644-7.099,25.741,0h0c7.097,7.098,7.097,18.646,0,25.742-3.549,3.549-8.21,5.323-12.87,5.323Zm0-33.39c-3.894,0-7.786,1.481-10.75,4.445-2.872,2.872-4.453,6.689-4.453,10.75s1.581,7.879,4.453,10.75c5.928,5.929,15.571,5.929,21.499,0,5.927-5.927,5.926-15.572,0-21.5-2.964-2.964-6.856-4.445-10.749-4.445Z"/><path class="d" d="M7.505,79.195l-7.505-7.504,13.243-13.243,7.505,7.505-13.243,13.242Zm-3.263-7.504l3.263,3.262,9.001-9-3.263-3.263-9.001,9.001Z"/><rect class="d" x="15.176" y="59.93" width="5.182" height="3" transform="translate(-38.234 30.555) rotate(-45)"/><path class="e" d="M47.662,64.526l-.475-2.963c14.354-2.297,24.771-14.534,24.771-29.096,0-16.249-13.219-29.468-29.468-29.468S13.023,16.219,13.023,32.468c0,1.866,.176,3.736,.523,5.558l-2.947,.562c-.382-2.007-.576-4.065-.576-6.12C10.023,14.565,24.589,0,42.491,0s32.468,14.565,32.468,32.468c0,16.044-11.48,29.526-27.297,32.059Z"/><polygon class="e" points="12.602 29.385 11.059 26.812 18.267 22.486 24.099 20.873 24.334 16.19 18.562 13.391 19.87 10.691 27.43 14.358 26.985 23.188 19.46 25.27 12.602 29.385"/><path class="e" d="M71.859,38.004l-4.121-5.78h-6.098l-8.863-5.744-9.208,1.024-7.378-1.387,.333-1.519c.565-2.577,1.191-5.5,1.289-6.07,.007-1.034,.223-1.237,7.124-4.182l.284-.121h4.795l2.058-4.511,4.457-.892,5.414-1.369,.734,2.908-5.487,1.386-3.024,.607-2.222,4.87h-6.135c-1.991,.853-4.211,1.844-5.169,2.325-.134,.683-.391,1.909-.885,4.178l3.891,.731,9.859-1.095,9.045,5.862h6.731l5.02,7.038-2.443,1.742Zm-30.982-19.045c-.003,.047-.01,.113-.029,.236,.016-.074,.025-.153,.029-.236Z"/><polygon class="e" points="61.522 56.273 60.205 47.841 57.104 45.302 57.104 39.939 62.722 37.903 67.113 37.783 72.546 43.501 70.37 45.567 65.859 40.818 63.288 40.89 60.104 42.043 60.104 43.88 62.992 46.245 64.487 55.811 61.522 56.273"/></g></g></g></svg>