<svg id="Layer_1" data-name="Layer 1" xmlns="http://www.w3.org/2000/svg" viewBox="0 0 356.01 360.34"><defs><style>.cls-1,.cls-2{fill:none;stroke-linecap:round;stroke-linejoin:round;stroke-width:8px;}.cls-1{stroke:#00439c;}.cls-2{stroke:#006eff;}</style></defs><path class="cls-1" d="M371.29,275.59c30,3.47,52.72,18.92,52.72,18.92v61.63c0,46.41-64.44,70-64.44,70s-64.43-23.62-64.43-70V294.51s22.72-15.45,52.72-18.92" transform="translate(-71.99 -69.83)"/><path class="cls-2" d="M158.45,158s58.63,8.27,76.94-36.51c0,0,19.62,36.23,48.29,36.23" transform="translate(-71.99 -69.83)"/><path class="cls-2" d="M159.8,267.24c0,10.79,0,34,0,34S162.25,315.8,76,337.75" transform="translate(-71.99 -69.83)"/><path class="cls-2" d="M248.42,267.24c0,10.79,0,34,0,34s-1.2,7.13,27.67,18.93" transform="translate(-71.99 -69.83)"/><path class="cls-2" d="M230.83,272.58c11.69-2.8,17.66-8,17.66-8,19.79-14.06,32.06-58.13,35.76-89,5.45-45.49-.62-99.91-79.91-101.71h-.46c-79.29,1.8-85.36,56.22-79.9,101.71,3.69,30.88,16,75,35.75,89,0,0,6,5.23,17.66,8" transform="translate(-71.99 -69.83)"/></svg>