<svg id="Layer_1" data-name="Layer 1" xmlns="http://www.w3.org/2000/svg" viewBox="0 0 380.13 362.1"><defs><style>.cls-1,.cls-2{fill:none;stroke-linecap:round;stroke-linejoin:round;stroke-width:8px;}.cls-1{stroke:#006eff;}.cls-2{stroke:#00439c;}</style></defs><path class="cls-1" d="M300.49,240.18c35.23-29.36,36.4-68.59,36.4-68.59C305.21,83.58,261.38,73,250,73s-55.21,10.63-86.9,98.64c0,0,1.18,39.23,36.41,68.59" transform="translate(-59.93 -68.95)"/><path class="cls-2" d="M185.77,168.19c18.77-5.28,40.95-8.34,64.71-8.34,23.35,0,45.17,3,63.74,8.07" transform="translate(-59.93 -68.95)"/><path class="cls-1" d="M162.43,230.47l-18,8.64s-12.92,5.88-17.62,24.08l-21.13,78.68S94,376.5,133.45,387.39" transform="translate(-59.93 -68.95)"/><path class="cls-1" d="M320.34,222.09l35.22,17s12.92,5.88,17.62,24.08l21.14,78.68S406.2,377,365.69,387.63" transform="translate(-59.93 -68.95)"/><polyline class="cls-1" points="216.35 199.2 285.05 199.2 285.05 331.45 94.03 331.45 94.03 199.2 162.74 199.2"/><line class="cls-1" x1="333.67" y1="298.2" x2="376.13" y2="298.2"/><line class="cls-1" x1="4" y1="298.2" x2="46.46" y2="298.2"/><path class="cls-2" d="M293.44,165.13C293.44,203.72,274,235,250,235s-43.45-31.29-43.45-69.88" transform="translate(-59.93 -68.95)"/><line class="cls-1" x1="87.87" y1="358.1" x2="292.26" y2="358.1"/><rect class="cls-1" x="170.47" y="244" width="37.16" height="53.68" rx="17.25"/><line class="cls-1" x1="182.51" y1="244" x2="174.08" y2="232.96"/><polyline class="cls-1" points="169.89 276.47 159.76 268.19 156.43 281.34"/><polyline class="cls-1" points="175.72 292.81 165.58 284.53 162.25 297.68"/><polyline class="cls-1" points="207.77 276.47 217.91 268.19 221.24 281.34"/><polyline class="cls-1" points="202.47 292.79 212.6 284.51 215.93 297.66"/><polyline class="cls-1" points="170.47 258.67 160.33 250.39 157.01 263.54"/><polyline class="cls-1" points="207.63 261.56 217.77 250.39 221.09 263.54"/><line class="cls-1" x1="193.63" y1="244" x2="202.07" y2="232.96"/><circle class="cls-1" cx="188.83" cy="271.22" r="5.16"/><circle class="cls-1" cx="188.83" cy="257.77" r="1.42"/></svg>