<svg xmlns="http://www.w3.org/2000/svg" width="53.15" height="60.975" viewBox="661 4619 53.15 60.975">
    <g data-name="Group 22831">
        <path d="M687.574 4679.975c-.22 0-.438-.057-.634-.17l-25.307-14.611a1.27 1.27 0 0 1-.633-1.096c0-.452.244-.87.633-1.097l9.602-5.543a1.265 1.265 0 1 1 1.267 2.192l-7.703 4.448 22.775 13.15 22.775-13.15-7.804-4.506a1.265 1.265 0 1 1 1.265-2.192l9.702 5.601a1.265 1.265 0 0 1 0 2.193l-25.305 14.612c-.197.112-.414.169-.633.169"
              fill="#006eff" fill-rule="evenodd" data-name="Path 6026"/>
        <path d="M705.543 4646.522c-.214 0-.431-.055-.63-.17l-2.467-1.423a1.265 1.265 0 1 1 1.265-2.192l2.466 1.424a1.267 1.267 0 0 1-.634 2.361" fill="#006eff" fill-rule="evenodd" data-name="Path 6027"/>
        <path d="M710.416 4652.182a1.264 1.264 0 0 1-.634-2.361l.568-.328-.568-.328a1.265 1.265 0 1 1 1.265-2.19l2.466 1.422a1.268 1.268 0 0 1 0 2.192l-2.466 1.423c-.2.115-.417.17-.631.17" fill="#006eff"
              fill-rule="evenodd" data-name="Path 6028"/>
        <path d="M694.116 4661.594c-.437 0-.863-.228-1.096-.635a1.264 1.264 0 0 1 .463-1.728l4.076-2.353a1.264 1.264 0 0 1 1.728.464 1.267 1.267 0 0 1-.463 1.728l-4.075 2.353c-.2.115-.417.17-.633.17m8.15-4.706a1.264 1.264 0 0 1-.634-2.361l4.076-2.353a1.264 1.264 0 1 1 1.265 2.191l-4.075 2.352c-.2.116-.417.171-.631.171"
              fill="#00439c" fill-rule="evenodd" data-name="Path 6029"/>
        <path d="M687.574 4665.37c-.22 0-.438-.057-.634-.169l-2.463-1.424a1.265 1.265 0 1 1 1.264-2.192l1.833 1.058 1.834-1.058a1.265 1.265 0 1 1 1.264 2.192l-2.465 1.424c-.197.112-.414.17-.633.17" fill="#006eff"
              fill-rule="evenodd" data-name="Path 6030"/>
        <path d="M681.031 4661.594a1.26 1.26 0 0 1-.63-.171l-4.076-2.353a1.266 1.266 0 0 1 1.265-2.192l4.075 2.353a1.267 1.267 0 0 1-.634 2.363m-8.15-4.707a1.26 1.26 0 0 1-.631-.17l-4.076-2.352a1.266 1.266 0 1 1 1.265-2.192l4.076 2.353a1.264 1.264 0 0 1-.634 2.361"
              fill="#00439c" fill-rule="evenodd" data-name="Path 6031"/>
        <path d="M664.732 4652.182a1.26 1.26 0 0 1-.632-.17l-2.466-1.423a1.266 1.266 0 0 1 0-2.192l2.466-1.424a1.265 1.265 0 1 1 1.265 2.192l-.568.328.568.328a1.265 1.265 0 0 1-.633 2.361" fill="#006eff"
              fill-rule="evenodd" data-name="Path 6032"/>
        <path d="M669.604 4646.522a1.266 1.266 0 0 1-.634-2.36l2.466-1.425a1.266 1.266 0 0 1 1.265 2.192l-2.466 1.423c-.2.115-.417.17-.63.17" fill="#006eff" fill-rule="evenodd" data-name="Path 6033"/>
        <path d="M712.878 4636.145c-.082 0-.165-.014-.247-.027a1.283 1.283 0 0 1-.234-.068 1.63 1.63 0 0 1-.222-.12.979.979 0 0 1-.19-.159 1.245 1.245 0 0 1-.158-.19 1.586 1.586 0 0 1-.19-.455c-.011-.082-.025-.165-.025-.247 0-.335.14-.658.374-.892a.977.977 0 0 1 .189-.158c.07-.052.146-.088.222-.12a1.272 1.272 0 0 1 .727-.07c.083.013.165.038.24.07a.915.915 0 0 1 .216.12 1.272 1.272 0 0 1 .57 1.05c0 .082-.013.165-.026.247a1.588 1.588 0 0 1-.19.456 1.87 1.87 0 0 1-.157.19.984.984 0 0 1-.197.158c-.064.044-.14.088-.216.12a1.31 1.31 0 0 1-.24.068c-.082.013-.163.027-.246.027"
              fill="#006eff" fill-rule="evenodd" data-name="Path 6034"/>
        <path d="M690.697 4647.684a1.264 1.264 0 0 1 .462-1.727 1.264 1.264 0 0 1 1.727.468c.354.602.146 1.38-.462 1.727a1.258 1.258 0 0 1-1.727-.468m4.22-2.428a1.265 1.265 0 1 1 2.19-1.265 1.263 1.263 0 0 1-1.096 1.897c-.436 0-.86-.229-1.095-.632m4.214-2.437a1.276 1.276 0 0 1 .462-1.733 1.268 1.268 0 1 1-.462 1.733m4.22-2.436a1.264 1.264 0 1 1 2.189-1.265 1.262 1.262 0 0 1-1.095 1.898c-.436 0-.86-.228-1.094-.633m4.213-2.435a1.271 1.271 0 0 1 .468-1.733c.6-.349 1.38-.14 1.727.467a1.268 1.268 0 0 1-1.094 1.898c-.436 0-.866-.227-1.1-.632"
              fill="#00439c" fill-rule="evenodd" data-name="Path 6035"/>
        <path d="M687.572 4650.758c-.082 0-.164-.012-.247-.025a1.465 1.465 0 0 1-.456-.19 1.702 1.702 0 0 1-.19-.158 1.15 1.15 0 0 1-.157-.197 1.11 1.11 0 0 1-.114-.214 1.784 1.784 0 0 1-.077-.235c-.011-.081-.025-.17-.025-.252a1.283 1.283 0 0 1 .563-1.05 1.6 1.6 0 0 1 .456-.19c.165-.032.335-.032.493 0 .083.019.166.045.24.075a1.268 1.268 0 0 1 .413.273c.233.233.366.563.366.892 0 .087-.006.17-.02.252a1.572 1.572 0 0 1-.075.235 1.2 1.2 0 0 1-.114.214c-.05.07-.1.14-.157.197a1.26 1.26 0 0 1-.413.273 1.4 1.4 0 0 1-.24.075 1.547 1.547 0 0 1-.246.025"
              fill="#006eff" fill-rule="evenodd" data-name="Path 6036"/>
        <path d="M682.725 4648.152a1.266 1.266 0 0 1-.46-1.735c.346-.6 1.119-.81 1.725-.462.602.349.81 1.127.462 1.728a1.246 1.246 0 0 1-1.094.632c-.215 0-.436-.05-.633-.163m-4.22-2.436a1.263 1.263 0 0 1-.462-1.727 1.265 1.265 0 0 1 1.728-.47c.607.355.81 1.128.462 1.735a1.264 1.264 0 0 1-1.095.633c-.214 0-.43-.058-.632-.17m-4.22-2.438a1.269 1.269 0 0 1-.462-1.727 1.259 1.259 0 0 1 1.727-.46c.608.346.816 1.119.47 1.725a1.275 1.275 0 0 1-1.735.462m-4.214-2.435a1.265 1.265 0 1 1 1.265-2.19 1.266 1.266 0 0 1-.638 2.362c-.216 0-.43-.057-.627-.172m-4.22-2.436a1.263 1.263 0 0 1-.462-1.727 1.256 1.256 0 0 1 1.728-.462c.607.348.81 1.12.462 1.727a1.263 1.263 0 0 1-1.727.462"
              fill="#00439c" fill-rule="evenodd" data-name="Path 6037"/>
        <path d="M662.265 4636.145c-.083 0-.164-.006-.246-.027a1.248 1.248 0 0 1-.235-.068 1.625 1.625 0 0 1-.221-.12.94.94 0 0 1-.19-.159 1.269 1.269 0 0 1-.348-1.14c.019-.081.038-.157.076-.24.032-.074.07-.144.113-.214a1.25 1.25 0 0 1 .16-.19.939.939 0 0 1 .189-.158c.07-.052.145-.088.221-.12a1.272 1.272 0 0 1 .727-.07c.084.013.165.038.241.07.076.032.146.068.216.12a1.26 1.26 0 0 1 .563 1.05 1.263 1.263 0 0 1-.563 1.051c-.07.044-.14.088-.216.12a1.307 1.307 0 0 1-.24.068c-.082.02-.165.027-.247.027"
              fill="#006eff" fill-rule="evenodd" data-name="Path 6038"/>
        <path d="M665.39 4633.076a1.262 1.262 0 0 1 .462-1.727 1.26 1.26 0 0 1 1.728.46 1.261 1.261 0 0 1-.462 1.728 1.286 1.286 0 0 1-.633.172c-.436 0-.86-.229-1.095-.633m4.214-2.437a1.265 1.265 0 0 1 .468-1.727 1.264 1.264 0 1 1 1.265 2.19 1.272 1.272 0 0 1-1.733-.462m4.22-2.436a1.27 1.27 0 0 1 .462-1.727 1.261 1.261 0 0 1 1.727.462 1.266 1.266 0 0 1-.462 1.734 1.272 1.272 0 0 1-.633.163c-.435 0-.86-.227-1.094-.632m4.22-2.436a1.258 1.258 0 0 1 .461-1.727 1.27 1.27 0 0 1 1.728.462 1.261 1.261 0 0 1-.462 1.727 1.264 1.264 0 0 1-1.727-.462m4.213-2.435a1.266 1.266 0 1 1 1.733.467 1.274 1.274 0 0 1-.632.165c-.436 0-.866-.227-1.1-.632"
              fill="#00439c" fill-rule="evenodd" data-name="Path 6039"/>
        <path d="M687.572 4621.535c-.082 0-.164-.013-.247-.026a1.46 1.46 0 0 1-.456-.188 1.241 1.241 0 0 1-.19-.159 1.464 1.464 0 0 1-.157-.19 1.445 1.445 0 0 1-.114-.22 1.78 1.78 0 0 1-.077-.235c-.011-.082-.025-.165-.025-.254 0-.082.014-.163.025-.246.02-.076.045-.158.077-.233.031-.076.07-.152.114-.216a1.247 1.247 0 0 1 .347-.354 1.597 1.597 0 0 1 .456-.19c.165-.032.335-.032.493 0a1.407 1.407 0 0 1 .456.19c.07.045.14.102.197.158.057.057.106.127.157.196.044.064.082.14.114.216.032.075.057.157.076.233a1.563 1.563 0 0 1 0 .5 1.568 1.568 0 0 1-.19.456 1.232 1.232 0 0 1-.57.462c-.074.03-.157.057-.24.074a1.548 1.548 0 0 1-.246.026"
              fill="#006eff" fill-rule="evenodd" data-name="Path 6040"/>
        <path d="M708.031 4633.537a1.263 1.263 0 1 1 1.265-2.19c.6.35.81 1.12.462 1.728a1.27 1.27 0 0 1-1.1.632c-.208 0-.43-.056-.627-.17m-4.22-2.436a1.261 1.261 0 0 1-.461-1.727 1.261 1.261 0 0 1 1.727-.462c.608.348.816 1.125.462 1.727a1.261 1.261 0 0 1-1.727.462m-4.22-2.435c-.6-.349-.81-1.121-.462-1.726a1.262 1.262 0 0 1 1.727-.463c.608.348.816 1.125.468 1.727a1.272 1.272 0 0 1-1.733.462m-4.214-2.43a1.274 1.274 0 0 1-.468-1.734 1.275 1.275 0 0 1 1.733-.461c.6.348.81 1.125.462 1.727a1.266 1.266 0 0 1-1.094.633c-.215 0-.436-.051-.633-.165m-4.22-2.436a1.266 1.266 0 0 1 1.265-2.195c.609.347.817 1.126.463 1.728a1.251 1.251 0 0 1-1.095.63c-.214 0-.43-.049-.632-.163"
              fill="#00439c" fill-rule="evenodd" data-name="Path 6041"/>
    </g>
</svg>
