<svg id="Layer_1" data-name="Layer 1" xmlns="http://www.w3.org/2000/svg" viewBox="0 0 56 56" fill="currentcolor">
    <path
          d="M51.5,15.09a1.1,1.1,0,0,1,1.09,1.1v5.62c0,5.67-6.21,12.28-14.67,13.53-2.68,5.54-6.72,8.24-10.16,8.84v8.9h7.85A2.38,2.38,0,0,1,38,55.46a.54.54,0,0,1-.54.54H15.16a.55.55,0,0,1-.55-.54A2.38,2.38,0,0,1,17,53.08h7.86v-8.9c-3.44-.6-7.48-3.3-10.17-8.84C6.22,34.09,0,27.48,0,21.81V16.19a1.1,1.1,0,0,1,1.1-1.1H11.69V10.35a1.09,1.09,0,0,1,1.09-1.1h27a1.1,1.1,0,0,1,1.1,1.1v4.74Zm-38.12,17a38.41,38.41,0,0,1-1.69-11.89V18H2.92v3.79C2.92,25.5,7.11,30.48,13.38,32.1ZM38,20.21v-8H14.61v8c0,11.68,5.11,21.18,11.69,21.18S38,31.89,38,20.21ZM49.67,18H40.91v2.19A38.41,38.41,0,0,1,39.22,32.1c6.25-1.62,10.45-6.6,10.45-10.29Z"/>
</svg>
