<svg id="Layer_1" data-name="Layer 1" xmlns="http://www.w3.org/2000/svg" viewBox="0 0 287.26 360.34"><defs><style>.cls-1,.cls-2{fill:none;stroke-linecap:round;stroke-linejoin:round;stroke-width:8px;}.cls-1{stroke:#00439c;}.cls-2{stroke:#006eff;}</style></defs><line class="cls-1" x1="83.97" y1="263.8" x2="62.54" y2="294.37"/><line class="cls-1" x1="88.53" y1="289.8" x2="57.97" y2="268.36"/><line class="cls-1" x1="154.62" y1="251.4" x2="133.18" y2="281.97"/><line class="cls-1" x1="159.18" y1="277.41" x2="128.61" y2="255.96"/><line class="cls-1" x1="225.26" y1="239.01" x2="203.82" y2="269.58"/><line class="cls-1" x1="229.83" y1="265.02" x2="199.26" y2="243.57"/><path class="cls-2" d="M242.37,293.39a44.09,44.09,0,0,1-16,3c-24.66,0-44.83-20.36-44.83-45.25v-48.6l32.14,29.21" transform="translate(-106.37 -69.83)"/><path class="cls-2" d="M289.16,170a19.28,19.28,0,1,1-19.28-19.27A19.28,19.28,0,0,1,289.16,170Z" transform="translate(-106.37 -69.83)"/><line class="cls-2" x1="163.51" y1="120.31" x2="163.51" y2="190.61"/><line class="cls-2" x1="163.51" y1="79.25" x2="163.51" y2="4"/><polyline class="cls-2" points="56.77 210.46 4 219.98 28.58 356.34 283.26 310.43 258.68 174.07 82.68 205.79"/></svg>