<svg id="Layer_1" data-name="Layer 1" xmlns="http://www.w3.org/2000/svg" viewBox="0 0 374.13 244.87"><defs><style>.cls-1,.cls-2{fill:none;stroke-linecap:round;stroke-linejoin:round;stroke-width:8px;}.cls-1{stroke:#006eff;fill-rule:evenodd;}.cls-2{stroke:#00439c;}</style></defs><path class="cls-1" d="M225.61,368.44H137.84q-28.95-.68-49.58-21.32-21.32-21.35-21.32-51.5t21.32-51.33q20.11-20.17,48.13-21.31c0-1.14,0-2.29,0-3.44q0-36.42,25.79-62.2t62.19-25.78q36.48,0,62.28,25.78a91.15,91.15,0,0,1,14.77,19.17,42,42,0,0,1,27.14-9.26,43.76,43.76,0,0,1,44,44,44.51,44.51,0,0,1-1.6,12.38q23.42,3.19,40.88,20.68,21.26,21.25,21.23,51.33t-21.23,51.5q-21.3,21.3-51.41,21.32h-86" transform="translate(-62.94 -127.56)"/><rect class="cls-2" x="288.39" y="295.22" width="19.2" height="19.2" transform="translate(539.87 -120.73) rotate(90)"/><rect class="cls-2" x="240.4" y="295.22" width="19.2" height="19.2" transform="translate(491.88 -72.74) rotate(90)"/><line class="cls-2" x1="187.06" y1="90.88" x2="187.06" y2="167.66"/><polyline class="cls-2" points="235.05 167.66 235.05 143.66 215.86 143.66 215.86 90.88"/><rect class="cls-2" x="192.41" y="295.22" width="19.2" height="19.2" transform="translate(443.9 -24.76) rotate(90)"/><polyline class="cls-2" points="139.08 167.66 139.08 143.66 158.27 143.66 158.27 90.88"/></svg>