<svg id="Layer_1" data-name="Layer 1" xmlns="http://www.w3.org/2000/svg" viewBox="0 0 384.85 288.98"><defs><style>.cls-1,.cls-2{fill:none;stroke-linecap:round;stroke-linejoin:round;stroke-width:8px;}.cls-1{stroke:#00439c;}.cls-2{stroke:#006eff;}</style></defs><path class="cls-1" d="M250,225.62h0a15.7,15.7,0,0,1,15.7,15.7v78.51a15.7,15.7,0,0,1-15.7,15.7h0a15.7,15.7,0,0,1-15.7-15.7V241.32A15.7,15.7,0,0,1,250,225.62Z" transform="translate(-57.57 -105.51)"/><path class="cls-1" d="M250,162.81h0a15.7,15.7,0,0,1,15.7,15.7h0a15.7,15.7,0,0,1-15.7,15.7h0a15.7,15.7,0,0,1-15.7-15.7h0A15.7,15.7,0,0,1,250,162.81Z" transform="translate(-57.57 -105.51)"/><path class="cls-2" d="M271.76,109.51a141.33,141.33,0,1,1-43.51,0" transform="translate(-57.57 -105.51)"/><path class="cls-2" d="M116.76,382.41c-73.58-73.59-73.58-192.89,0-266.48" transform="translate(-57.57 -105.51)"/><path class="cls-2" d="M383.24,115.93c73.58,73.59,73.58,192.89,0,266.48" transform="translate(-57.57 -105.51)"/><path class="cls-2" d="M116.76,382.41c-73.58-73.59-73.58-192.89,0-266.48" transform="translate(-57.57 -105.51)"/></svg>