<?xml version="1.0" encoding="UTF-8"?><svg xmlns="http://www.w3.org/2000/svg" viewBox="0 0 84.654 84.175"><defs><style>.d{fill:#00439c;}.e{fill:#006eff;}</style></defs><g id="a"/><g id="b"><g id="c"><g><path class="d" d="M35.852,43.808V21.744c0-3.067,2.197-5.819,5.241-6.194,3.645-.45,6.759,2.395,6.759,5.953v22.546c0,3.558-3.114,6.403-6.759,5.953-3.044-.376-5.241-3.127-5.241-6.194Zm3-22.088v22.113c0,1.468,.986,2.829,2.43,3.096,1.903,.353,3.57-1.107,3.57-2.947V21.57c0-1.84-1.667-3.3-3.57-2.947-1.444,.267-2.43,1.628-2.43,3.096Z"/><path class="d" d="M42.327,68.298c-3.328,0-6.036-2.708-6.036-6.036s2.708-6.036,6.036-6.036,6.036,2.708,6.036,6.036-2.708,6.036-6.036,6.036Zm0-9.072c-1.674,0-3.036,1.362-3.036,3.036s1.362,3.036,3.036,3.036,3.036-1.362,3.036-3.036-1.362-3.036-3.036-3.036Z"/><path class="e" d="M42.328,84.175C18.988,84.175,0,65.188,0,41.849,0,21.158,15.397,3.174,35.814,.018c.821-.127,1.586,.434,1.712,1.253,.127,.819-.435,1.585-1.253,1.712C17.305,5.916,3,22.625,3,41.849c0,21.685,17.643,39.326,39.328,39.326s39.326-17.642,39.326-39.326c0-19.225-14.304-35.934-33.271-38.866-.818-.127-1.38-.893-1.253-1.712,.126-.819,.886-1.381,1.712-1.253,20.416,3.156,35.812,21.14,35.812,41.831,0,23.339-18.987,42.326-42.326,42.326Z"/></g></g></g></svg>