<svg id="Layer_1" data-name="Layer 1" xmlns="http://www.w3.org/2000/svg" viewBox="0 0 425.29 358.51"><defs><style>.cls-1,.cls-3{fill:none;stroke-linecap:round;stroke-linejoin:round;stroke-width:8px;}.cls-1{stroke:#006eff;}.cls-2{fill:#00439c;}.cls-3{stroke:#00439c;}</style></defs><line class="cls-1" x1="68.48" y1="37.38" x2="68.48" y2="37.38"/><line class="cls-1" x1="99.07" y1="37.38" x2="99.07" y2="37.38"/><line class="cls-1" x1="4" y1="70.76" x2="387.9" y2="70.76"/><line class="cls-1" x1="37.89" y1="37.38" x2="37.89" y2="37.38"/><path class="cls-1" d="M277.82,74.74H425.26a33.38,33.38,0,0,1,33.38,33.39V391.87a33.39,33.39,0,0,1-33.38,33.39H74.74a33.39,33.39,0,0,1-33.38-33.39V108.13A33.38,33.38,0,0,1,74.74,74.74H222.17" transform="translate(-37.36 -70.74)"/><path class="cls-2" d="M382.22,200v50H117.78V200H382.22m0-8H117.78a8,8,0,0,0-8,8v50a8,8,0,0,0,8,8H382.22a8,8,0,0,0,8-8V200a8,8,0,0,0-8-8Z" transform="translate(-37.36 -70.74)"/><line class="cls-3" x1="76.25" y1="240.43" x2="349.04" y2="240.43"/><line class="cls-3" x1="76.25" y1="288.76" x2="188.32" y2="288.76"/><line class="cls-3" x1="236.97" y1="288.76" x2="349.04" y2="288.76"/></svg>