<svg id="Layer_1" data-name="Layer 1" xmlns="http://www.w3.org/2000/svg" viewBox="0 0 56 56"><defs><style>.cls-1{fill:#205fff;}</style></defs><path class="cls-1" d="M35.91,22.84a17.74,17.74,0,0,1-4.34,11.62,24.77,24.77,0,0,0-4.4,7.75,1.49,1.49,0,0,1-1.53,1.31l-.23,0a1.65,1.65,0,0,1-1.36-1.86l.06-.33a27.79,27.79,0,0,1,5.06-8.94,14.56,14.56,0,0,0-.71-19.82A14.2,14.2,0,0,0,18.38,8.37h-.05A14.26,14.26,0,0,0,4,22.84a14.49,14.49,0,0,0,3.56,9.53,27.86,27.86,0,0,1,5.05,8.94l.06.33a1.61,1.61,0,0,1-1.41,1.76A1.57,1.57,0,0,1,9.54,42a25,25,0,0,0-4.36-7.57A17.68,17.68,0,0,1,18.33,5.18a17,17,0,0,1,12.38,5.1A17.65,17.65,0,0,1,35.91,22.84ZM26.32,48.21l0,2.22a3.9,3.9,0,0,1-.54,1.76l-1.7,2.56a3.57,3.57,0,0,1-2.65,1.42H15.31a3.4,3.4,0,0,1-2.66-1.51L11,52.1a3.14,3.14,0,0,1-.53-1.76V48.12A1.6,1.6,0,0,1,12,46.52H24.74A1.67,1.67,0,0,1,26.32,48.21Zm-3.17,2.23s0-.08,0-.13V49.8H13.6v.63L15.31,53s0,0,0,0l.14,0h6c-.08-.09,0-.07.09-.12l1.61-2.43Zm-4.77-19A2.39,2.39,0,1,1,16,33.86,2.39,2.39,0,0,1,18.38,31.47Zm0-2.39a1.59,1.59,0,0,1-1.59-1.59V16.33a1.6,1.6,0,0,1,3.19,0V27.49A1.6,1.6,0,0,1,18.37,29.08Z"/></svg>