<svg xmlns="http://www.w3.org/2000/svg" xmlns:xlink="http://www.w3.org/1999/xlink" width="41.781" height="50" viewBox="0 0 41.781 50"><defs><clipPath id="a"><rect width="41.781" height="50" fill="none" stroke="#707070" stroke-width="2"/></clipPath></defs><g transform="translate(0 0)"><g transform="translate(0 0)" clip-path="url(#a)"><path d="M.5,13.647V8.307L20.693.5,40.887,8.307V18.933c0,12.562-2.994,23.07-20.194,30.173a51.217,51.217,0,0,1-5.308-2.54" transform="translate(0.197 0.197)" fill="none" stroke="#006dff" stroke-linecap="round" stroke-linejoin="round" stroke-width="2"/><path d="M.5,13.166l7.22-2.832A15.879,15.879,0,0,1,26.8,16.415a16.325,16.325,0,0,1-8.016,23.47,23.322,23.322,0,0,1-5.669,1.537" transform="translate(0.197 3.638)" fill="none" stroke="#0043a2" stroke-linecap="round" stroke-linejoin="round" stroke-width="2"/><path d="M.857,17.552A35.182,35.182,0,0,1,7.118,13.67,10.835,10.835,0,0,1,17.313,32.78a55.56,55.56,0,0,1-5.2,2.023" transform="translate(0.338 4.941)" fill="none" stroke="#0043a2" stroke-linecap="round" stroke-linejoin="round" stroke-width="2"/><path d="M6.654,17.836c3.513-1.7,7.418-1.855,9.149,1.979,1.685,3.985-.325,5.684-3.029,7.049s-6.112,2.4-7.482,6.863" transform="translate(2.084 6.574)" fill="none" stroke="#0043a2" stroke-linecap="round" stroke-linejoin="round" stroke-width="2"/><path d="M1.123,21.989A36.244,36.244,0,0,1,5.1,18.86" transform="translate(0.442 7.429)" fill="none" stroke="#0043a2" stroke-linecap="round" stroke-linejoin="round" stroke-width="2"/><path d="M2.83,27.272s2.411-4.637,9-6.833" transform="translate(1.115 8.051)" fill="none" stroke="#0043a2" stroke-linecap="round" stroke-linejoin="round" stroke-width="2"/></g></g></svg>