<svg id="Layer_1" data-name="Layer 1" xmlns="http://www.w3.org/2000/svg" viewBox="0 0 56 56" fill="currentcolor">
    <path  d="M14.41,38.54.46,24.59a1.52,1.52,0,0,1-.46-1,1.66,1.66,0,0,1,.46-1.09l14-13.95a1.55,1.55,0,0,1,2.19,2.19L5.29,22H33.06a1.51,1.51,0,1,1,0,3H5.29L16.6,36.36a1.55,1.55,0,1,1-2.19,2.18Z"/>
    <path
          d="M41.59,47.54,55.54,33.59a1.48,1.48,0,0,0,.46-1,1.69,1.69,0,0,0-.45-1.09l-14-13.95a1.54,1.54,0,0,0-2.19,0,1.56,1.56,0,0,0,0,2.19L50.71,31H23.94a1.51,1.51,0,1,0,0,3H50.71L39.4,45.36a1.55,1.55,0,1,0,2.19,2.18Z"/>
</svg>
