<?xml version="1.0" standalone="no"?>
<!DOCTYPE svg PUBLIC "-//W3C//DTD SVG 20010904//EN"
 "http://www.w3.org/TR/2001/REC-SVG-20010904/DTD/svg10.dtd">
<svg version="1.0" xmlns="http://www.w3.org/2000/svg"
 width="752.000000pt" height="752.000000pt" viewBox="0 0 752.000000 752.000000"
 preserveAspectRatio="xMidYMid meet">

<g transform="translate(0.000000,752.000000) scale(0.100000,-0.100000)"
fill="#000000" stroke="none">
<path d="M4138 4898 c-18 -6 -183 -190 -471 -526 -243 -284 -450 -528 -460
-542 -22 -32 -22 -108 0 -140 10 -14 217 -258 461 -542 394 -460 448 -519 483
-529 104 -32 202 67 175 176 -4 14 -186 235 -406 492 -220 257 -400 469 -400
473 0 4 180 216 400 473 220 257 402 478 406 492 29 115 -78 214 -188 173z"/>
</g>
</svg>
