<svg id="Layer_1" data-name="Layer 1" xmlns="http://www.w3.org/2000/svg" viewBox="0 0 56 56" fill="currentcolor">
    <path
          d="M7.3,21.68a1.18,1.18,0,0,1-1.11.47A1.24,1.24,0,0,1,5,21.79L.45,17.19A1.53,1.53,0,1,1,2.61,15L6,18.44l6.58-7.9a1.53,1.53,0,1,1,2.36,2ZM7.3,37a1.18,1.18,0,0,1-1.11.47A1.21,1.21,0,0,1,5,37.1L.45,32.5a1.53,1.53,0,0,1,2.16-2.16L6,33.75l6.58-7.9a1.48,1.48,0,0,1,2.16-.2,1.55,1.55,0,0,1,.2,2.16ZM6,49.8a3.07,3.07,0,0,1,0-6.13A3.07,3.07,0,0,1,6,49.8Zm9.19-3.06a1.59,1.59,0,0,1,1.53-1.54H47.47a1.54,1.54,0,0,1,0,3.07H16.76A1.59,1.59,0,0,1,15.23,46.74Zm3.06-30.63a1.58,1.58,0,0,1,1.53-1.53H47.47a1.53,1.53,0,1,1,0,3.06H19.82A1.59,1.59,0,0,1,18.29,16.11Zm0,15.31a1.59,1.59,0,0,1,1.53-1.53H47.47a1.53,1.53,0,0,1,0,3.06H19.82A1.58,1.58,0,0,1,18.29,31.42Z"/>
</svg>
