<svg id="Layer_1" data-name="Layer 1" xmlns="http://www.w3.org/2000/svg" viewBox="0 0 413.96 357.88"><defs><style>.cls-1,.cls-2{fill:none;stroke-linecap:round;stroke-linejoin:round;stroke-width:8px;}.cls-1{stroke:#006eff;}.cls-2{stroke:#00439c;}</style></defs><path class="cls-1" d="M391.63,424.94A203.68,203.68,0,0,0,453,279C453,166.34,362.1,75.06,250,75.06S47,166.34,47,279a203.68,203.68,0,0,0,61.35,146" transform="translate(-43.02 -71.06)"/><line class="cls-1" x1="206.73" y1="4" x2="206.73" y2="39.26"/><line class="cls-1" x1="82.47" y1="51.66" x2="102.28" y2="76.78"/><line class="cls-1" x1="11.14" y1="161.69" x2="42.36" y2="169.41"/><line class="cls-1" x1="23.27" y1="291.94" x2="52.66" y2="278.97"/><line class="cls-1" x1="331.56" y1="51.66" x2="311.76" y2="76.78"/><line class="cls-1" x1="402.89" y1="161.69" x2="371.68" y2="169.41"/><line class="cls-1" x1="390.76" y1="291.94" x2="361.38" y2="278.97"/><path class="cls-1" d="M372.66,246.07,267.11,306a36.66,36.66,0,0,0-34.41,5.86,36,36,0,0,0-5.89,50.83,36.7,36.7,0,0,0,51.26,5.84,35.93,35.93,0,0,0,13.57-31.9L382,260.16Z" transform="translate(-43.02 -71.06)"/><path class="cls-2" d="M346.43,219.37c-36.14-48.06-104.73-58-153.21-22.16a108,108,0,0,0-37.71,50.85l3.58,2.85a99.43,99.43,0,0,1,13.63-12.44C214,208,272.18,212,300.79,252.29l48.7-28.38C348.47,222.39,347.54,220.85,346.43,219.37Z" transform="translate(-43.02 -71.06)"/></svg>