<svg id="Layer_1" data-name="Layer 1" xmlns="http://www.w3.org/2000/svg" viewBox="0 0 432.34 260.44"><defs><style>.cls-1,.cls-2{fill:none;stroke-linecap:round;stroke-linejoin:round;stroke-width:8px;}.cls-1{stroke:#006eff;}.cls-2{stroke:#00439c;}</style></defs><path class="cls-1" d="M67.44,227.55a198.34,198.34,0,0,1,47.42-53.3l61.62,91.35a90.32,90.32,0,0,0-29.71,67.82H37.83a203.63,203.63,0,0,1,15.38-77.86" transform="translate(-33.83 -119.78)"/><path class="cls-1" d="M251.71,123.78a198.53,198.53,0,0,0-101.66,27.85l61.63,90.5a89.74,89.74,0,0,1,80.05,0l61.64-90.5A198.56,198.56,0,0,0,251.71,123.78Z" transform="translate(-33.83 -119.78)"/><path class="cls-1" d="M360.59,333.42H462.17c0-64.64-27.56-121.19-73.45-157l-55.83,83.08" transform="translate(-33.83 -119.78)"/><path class="cls-2" d="M360.59,278l-85.27,26.78a38.61,38.61,0,1,0,18,37.62l76.47-45.93Z" transform="translate(-33.83 -119.78)"/></svg>