<svg id="Layer_1" data-name="Layer 1" xmlns="http://www.w3.org/2000/svg" viewBox="0 0 56 56"><defs><style>.cls-1{fill:#205fff;}</style></defs><path class="cls-1" d="M40,41.24A8.53,8.53,0,0,1,29.56,51.71a8.53,8.53,0,0,1-14.8,0A8.53,8.53,0,0,1,4.29,41.24a8.53,8.53,0,0,1,0-14.8A8.53,8.53,0,0,1,14.76,16a8.53,8.53,0,0,1,14.8,0A8.53,8.53,0,0,1,40,26.44a8.53,8.53,0,0,1,0,14.8Zm1.52-7.4c0-4.41-4.06-5.51-5.11-5.91.38-.83,2.62-4.62-.56-7.8s-6.78-1-7.8-.56c-.31-.83-1.4-5.11-5.91-5.11s-5.52,4.06-5.91,5.11c-.81-.36-4.62-2.63-7.8.56s-1,6.78-.57,7.8c-.83.31-5.11,1.4-5.11,5.91s4.07,5.52,5.11,5.91c-.38.84-2.62,4.63.57,7.8,2.49,2.49,5,1.85,7.8.57.31.83,1.4,5.11,5.91,5.11s5.51-4.07,5.91-5.11c2.82,1.28,5.29,1.93,7.8-.57,3.11-3.11,1-6.77.56-7.8C37.26,39.44,41.54,38.35,41.54,33.84ZM28.13,39.11a4.67,4.67,0,0,1-4.47,3h-.12v2.08a.69.69,0,0,1-.69.69H21.46a.69.69,0,0,1-.69-.69V42.15h-.12a6.08,6.08,0,0,1-3.71-1.25.71.71,0,0,1-.09-1.06l1-1a.66.66,0,0,1,.85-.1,3.34,3.34,0,0,0,2,.63h3.2a1.77,1.77,0,0,0,.48-3.47l-4.88-1.4a4.74,4.74,0,0,1-3.51-4,4.55,4.55,0,0,1,4.53-5h.3V23.46a.69.69,0,0,1,.69-.69h1.39a.69.69,0,0,1,.69.69v2.08h.12a6.08,6.08,0,0,1,3.71,1.25.71.71,0,0,1,.09,1.06l-1,1a.66.66,0,0,1-.85.1,3.34,3.34,0,0,0-2-.63H20.47A1.77,1.77,0,0,0,20,31.78l5.11,1.46A4.56,4.56,0,0,1,28.13,39.11Z"/></svg>