<svg id="Layer_1" data-name="Layer 1" xmlns="http://www.w3.org/2000/svg" viewBox="0 0 56 56" fill="currentcolor">
    <path
          d="M49,27.91v18.9a6.12,6.12,0,0,1-6.12,6.13H6.12A6.12,6.12,0,0,1,0,46.81V27.91a6.11,6.11,0,0,1,1.79-4.32L4.33,21a6.12,6.12,0,0,1,4.33-1.79h3.59V14.66a4.6,4.6,0,0,1,4.59-4.6H32.16a4.6,4.6,0,0,1,4.59,4.6v4.59h3.59a6.07,6.07,0,0,1,4.33,1.8l2.54,2.54A6.07,6.07,0,0,1,49,27.91Zm-45.94,0v8.18H13.78V33a1.53,1.53,0,1,1,3.06,0v3.06H32.16V33a1.53,1.53,0,0,1,3.06,0v3.06H45.94V27.91a2.68,2.68,0,0,0-1-2.16l-2.54-2.54a3,3,0,0,0-2.17-.9H8.66a3,3,0,0,0-2.16.9L4,25.75A2.88,2.88,0,0,0,3.06,27.91Zm42.88,18.9V39.16H35.22v3.06a1.53,1.53,0,0,1-3.06,0V39.16H16.84v3.06a1.66,1.66,0,0,1-1.61,1.53,1.52,1.52,0,0,1-1.45-1.53V39.16H3.06v7.65a3.07,3.07,0,0,0,3.06,3.07H42.88A3.07,3.07,0,0,0,45.94,46.81ZM15.31,19.25H33.69V14.66a1.54,1.54,0,0,0-1.53-1.54H16.84a1.54,1.54,0,0,0-1.53,1.54Z"/>
</svg>
