<svg id="Layer_1" data-name="Layer 1" xmlns="http://www.w3.org/2000/svg" viewBox="0 0 56 56"><defs><style>.cls-1{fill:#205fff;}</style></defs><path class="cls-1" d="M36.84,5H3.16A3.15,3.15,0,0,0,0,8.16V52.84A3.15,3.15,0,0,0,3.16,56H36.84A3.15,3.15,0,0,0,40,52.84V8.16A3.15,3.15,0,0,0,36.84,5ZM37,52.84a.16.16,0,0,1-.16.16H3.16A.16.16,0,0,1,3,52.84V8.16A.16.16,0,0,1,3.16,8H36.84a.16.16,0,0,1,.16.16Z"/><rect class="cls-1" x="9" y="47.13" width="22" height="3.33" rx="1.58"/><path class="cls-1" d="M27.85,22H27V18A5,5,0,0,0,22,13H18A5,5,0,0,0,13,18v4h-.87A3.15,3.15,0,0,0,9,25.15v12.7A3.15,3.15,0,0,0,12.15,41h15.7A3.15,3.15,0,0,0,31,37.85V25.15A3.15,3.15,0,0,0,27.85,22ZM16,18A2,2,0,0,1,18,16H22A2,2,0,0,1,24,18v4H16ZM28,37.85a.15.15,0,0,1-.15.15H12.15a.15.15,0,0,1-.15-.15V25.15a.15.15,0,0,1,.15-.15h15.7a.15.15,0,0,1,.15.15Z"/><path class="cls-1" d="M20,30a1,1,0,0,0-1,1v4a1,1,0,0,0,2,0V31A1,1,0,0,0,20,30Z"/></svg>