<svg xmlns="http://www.w3.org/2000/svg" width="50" height="50" viewBox="0 0 50 50">
  <g id="Group_22806" data-name="Group 22806" transform="translate(-127.898 -245.32)">
    <path id="Path_25289" data-name="Path 25289" d="M152.9,245.32a25,25,0,1,0,25,25A25,25,0,0,0,152.9,245.32Zm0,47.562a22.561,22.561,0,1,1,22.561-22.561h0A22.588,22.588,0,0,1,152.9,292.882Z" fill="#006eff"/>
    <path id="Path_25290" data-name="Path 25290" d="M168.555,274.581v0h-9.019a6.686,6.686,0,0,0-1.718-3.367l8.624-12.654a1.219,1.219,0,1,0-2.015-1.372l-8.574,12.586a6.687,6.687,0,0,0-9.493,4.807h-9.116a1.22,1.22,0,0,0,0,2.439h10.117c.034,0,.066.011.1.011a1.22,1.22,0,0,0,1.22-1.22,4.268,4.268,0,0,1,8.535-.029v.019a1.235,1.235,0,0,0,1.216,1.232c.035,0,.067-.008.1-.011h10.021a1.22,1.22,0,0,0,0-2.439Z" fill="#00439c"/>
    <path id="Path_25291" data-name="Path 25291" d="M136.128,272.447a2.135,2.135,0,1,0-2.137-2.137,2.134,2.134,0,0,0,2.137,2.137Z" fill="#00439c"/>
    <circle id="Ellipse_72" data-name="Ellipse 72" cx="2.134" cy="2.134" r="2.134" transform="translate(167.52 268.178)" fill="#00439c"/>
    <path id="Path_25292" data-name="Path 25292" d="M152.887,255.682h.005a2.133,2.133,0,1,0-.005,0Z" fill="#00439c"/>
    <path id="Path_25293" data-name="Path 25293" d="M139.53,259.969a2.134,2.134,0,1,0,0-3.019,2.135,2.135,0,0,0,0,3.019Z" fill="#00439c"/>
    <path id="Path_25294" data-name="Path 25294" d="M163.223,279.425H142.667a1.22,1.22,0,1,0,0,2.439h20.556a1.22,1.22,0,1,0,0-2.439Z" fill="#006eff"/>
  </g>
</svg>
