<svg id="Layer_1" data-name="Layer 1" xmlns="http://www.w3.org/2000/svg" viewBox="0 0 360.06 360.34"><defs><style>.cls-1,.cls-2{fill:none;stroke-linecap:round;stroke-linejoin:round;stroke-width:8px;}.cls-1{stroke:#006eff;}.cls-2{stroke:#00439c;}</style></defs><path class="cls-1" d="M195.1,328l-68.61,62.22C118.63,397.3,99.84,411.8,81,402.12" transform="translate(-69.97 -70.74)"/><path class="cls-1" d="M421.15,400.89c-22.87,11.87-41.95-3.64-49.77-10.73-7.05-6.41-25.26-23.15-41.44-38.08-9.2-8.45-21.39-19.81-26.92-24.86" transform="translate(-69.97 -70.74)"/><path class="cls-2" d="M424.45,225.17c-32.58,26.74-133,111.78-150.74,126.89-14.6,12.44-37.38,12.59-51.39.07C193,325.93,120.46,262.14,74,220.63" transform="translate(-69.97 -70.74)"/><path class="cls-1" d="M391.76,183.36c13.41,0,34.27,17.75,34.27,38.92v154.8a50.72,50.72,0,0,1-6.25,24.49,48.46,48.46,0,0,1-42.39,25.52H122.59c-26.8,0-48.62-22.44-48.62-50V220.23c0-21.36,21.73-36.87,44.07-36.87H231.5" transform="translate(-69.97 -70.74)"/><path class="cls-1" d="M270,183.36H393.53" transform="translate(-69.97 -70.74)"/><circle class="cls-1" cx="203.98" cy="19.97" r="7.98"/><line class="cls-1" x1="200.41" y1="83.84" x2="215.96" y2="99.81"/><polyline class="cls-1" points="144.1 99.81 180.03 62.91 185.35 68.38"/><path class="cls-1" d="M230.84,141a23.82,23.82,0,0,1-4.79-14.37v-24l20,12" transform="translate(-69.97 -70.74)"/><path class="cls-1" d="M274,98.7v27.94a24,24,0,0,1-23.95,24h0" transform="translate(-69.97 -70.74)"/><line class="cls-1" x1="203.98" y1="11.98" x2="203.98" y2="4"/></svg>