<svg id="Layer_1" data-name="Layer 1" xmlns="http://www.w3.org/2000/svg" viewBox="0 0 56 56" fill="currentcolor">
    <path
          d="M3.29,43.6a9.3,9.3,0,0,0,9.3,9.3H45.14a1.55,1.55,0,0,1,0,3.1H12.59A12.4,12.4,0,0,1,.19,43.6V17.24a1.55,1.55,0,0,1,3.1,0ZM49.79,6.39A6.21,6.21,0,0,1,56,12.59V40.5a6.21,6.21,0,0,1-6.21,6.2H15.69a6.21,6.21,0,0,1-6.2-6.2V12.59a6.21,6.21,0,0,1,6.2-6.2Zm-37.2,6.2v3.1h9.3V9.49h-6.2A3.1,3.1,0,0,0,12.59,12.59Zm3.1,31h34.1a3.1,3.1,0,0,0,3.11-3.1V18.79H12.59V40.5A3.1,3.1,0,0,0,15.69,43.6ZM49.79,9.49H25v6.2H52.9v-3.1A3.1,3.1,0,0,0,49.79,9.49Z"/>
</svg>
