<svg id="Layer_1" data-name="Layer 1" xmlns="http://www.w3.org/2000/svg" xmlns:xlink="http://www.w3.org/1999/xlink" viewBox="0 0 371.16 371.16"><defs><style>.cls-1,.cls-2{fill:none;stroke-linecap:round;stroke-linejoin:round;stroke-width:8px;}.cls-1{stroke:#006eff;}.cls-2{stroke:#00439c;}.cls-3{clip-path:url(#clip-path);}</style><clipPath id="clip-path" transform="translate(-64.42 -64.42)"><path id="SVGID" class="cls-1" d="M414.74,201,299,85.26a25.27,25.27,0,0,0-35.62,0L140.62,208H355a25.26,25.26,0,0,1,25.19,25.19v38l34.58-34.59A25.25,25.25,0,0,0,414.74,201Z"/></clipPath></defs><path class="cls-1" d="M77.91,294.24V210.49A2.5,2.5,0,0,1,80.39,208H377.67a2.5,2.5,0,0,1,2.49,2.49V419.6a2.5,2.5,0,0,1-2.49,2.49H80.39a2.5,2.5,0,0,1-2.48-2.49V336.68" transform="translate(-64.42 -64.42)"/><rect class="cls-2" x="240.17" y="193.95" width="37.78" height="37.78" rx="1.17"/><rect class="cls-2" x="51.27" y="193.95" width="62.97" height="37.78" rx="1.17"/><path class="cls-2" d="M304.6,372.43a.72.72,0,1,1,0-1.43h37.77a.72.72,0,1,1,0,1.43Z" transform="translate(-64.42 -64.42)"/><path class="cls-2" d="M241.63,372.43a.72.72,0,1,1,0-1.43h37.78a.72.72,0,1,1,0,1.43Z" transform="translate(-64.42 -64.42)"/><path class="cls-2" d="M178.66,372.43a.72.72,0,1,1,0-1.43h37.78a.72.72,0,1,1,0,1.43Z" transform="translate(-64.42 -64.42)"/><path class="cls-2" d="M115.7,372.43a.72.72,0,1,1,0-1.43h37.78a.72.72,0,0,1,0,1.43Z" transform="translate(-64.42 -64.42)"/><g class="cls-3"><rect class="cls-1" x="98.88" y="142.96" width="302.24" height="214.09" rx="2.34" transform="translate(-167.98 185.58) rotate(-45)"/><rect class="cls-1" x="72.17" y="204.4" width="302.24" height="37.78" transform="translate(-156.91 158.86) rotate(-45)"/><rect class="cls-1" x="333.52" y="199.94" width="37.78" height="37.78" rx="1.17" transform="translate(-115.95 248.86) rotate(-45)"/></g><path id="SVGID-2" data-name="SVGID" class="cls-1" d="M414.74,201,299,85.26a25.27,25.27,0,0,0-35.62,0L140.62,208H355a25.26,25.26,0,0,1,25.19,25.19v38l34.58-34.59A25.25,25.25,0,0,0,414.74,201Z" transform="translate(-64.42 -64.42)"/></svg>