<svg id="Layer_1" data-name="Layer 1" xmlns="http://www.w3.org/2000/svg" viewBox="0 0 397.76 306.72"><defs><style>.cls-1,.cls-2{fill:none;stroke-linecap:round;stroke-linejoin:round;stroke-width:8px;}.cls-1{stroke:#00439c;}.cls-2{stroke:#006eff;}</style></defs><path class="cls-1" d="M259.84,172.17c25.21,2.92,44.3,15.9,44.3,15.9v51.78c0,39-54.14,58.85-54.14,58.85s-54.14-19.85-54.14-58.85V188.07s19.09-13,44.29-15.9" transform="translate(-51.12 -96.64)"/><line class="cls-2" x1="4" y1="302.72" x2="393.76" y2="302.72"/><path class="cls-2" d="M273.43,100.64H391.29a43.55,43.55,0,0,1,43.42,43.43V310.35a43.55,43.55,0,0,1-43.42,43.43H108.71A43.54,43.54,0,0,1,65.3,310.35V144.07a43.54,43.54,0,0,1,43.41-43.43H226.57" transform="translate(-51.12 -96.64)"/><line class="cls-1" x1="4" y1="302.72" x2="393.76" y2="302.72"/><path class="cls-2" d="M273.43,100.64H391.29a43.55,43.55,0,0,1,43.42,43.43V310.35a43.55,43.55,0,0,1-43.42,43.43H108.71A43.54,43.54,0,0,1,65.3,310.35V144.07a43.54,43.54,0,0,1,43.41-43.43H226.57" transform="translate(-51.12 -96.64)"/></svg>