<svg id="Group_23146" data-name="Group 23146" xmlns="http://www.w3.org/2000/svg" width="40.063" height="48" viewBox="0 0 40.063 48">
  <path id="Path_29177" data-name="Path 29177" d="M15.341,23.617,26.108,13.388l-2.348-2.472-9.593,9.113L9.06,15.178,6.711,17.65l6.281,5.967A1.705,1.705,0,0,0,15.341,23.617Z" transform="translate(4.304 6.113)" fill="#156eff"/>
  <path id="Path_29178" data-name="Path 29178" d="M40.313,8.709,20.282.927.25,8.709V19.566c0,5.839.686,11.449,3.532,16.466,2.865,5.05,7.791,9.282,15.846,12.625l.653.271.653-.271c8.055-3.343,12.982-7.574,15.846-12.625,2.846-5.017,3.532-10.627,3.532-16.466ZM3.66,19.566V11.043L20.282,4.585,36.9,11.043v8.523c0,5.617-.673,10.526-3.088,14.784-2.326,4.1-6.388,7.8-13.534,10.881C13.135,42.15,9.074,38.45,6.747,34.349,4.332,30.092,3.66,25.183,3.66,19.566Z" transform="translate(-0.25 -0.927)" fill="#156eff" fill-rule="evenodd"/>
</svg>
