<svg xmlns="http://www.w3.org/2000/svg" width="57.306" height="60.975" viewBox="1125.501 4617 57.306 60.975"><g data-name="Group 22830"><path d="M1182.518 4652.209a1.919 1.919 0 0 0-1.346-1.385 1.93 1.93 0 0 0-1.878.493l-4.045 4.045-2.637-.44-.44-2.638 4.046-4.044a1.927 1.927 0 0 0 .492-1.872 1.93 1.93 0 0 0-1.393-1.353 9.475 9.475 0 0 0-.907-.177c-1.56-11.613-11.257-20.683-23.15-21.254v-4.187h1.359a1.199 1.199 0 0 0 0-2.397h-5.1a1.199 1.199 0 0 0 0 2.397h1.343v4.19c-12.988.63-23.36 11.394-23.36 24.537 0 13.38 10.752 24.287 24.068 24.555-.004.08-.01.16-.01.24 0 1.35.525 2.62 1.48 3.574a5.015 5.015 0 0 0 3.573 1.481c1.35 0 2.62-.526 3.576-1.48l12.346-12.347c3.375.856 6.913-.094 9.383-2.563a9.934 9.934 0 0 0 2.6-9.375m-32.45 18.086c-12.225 0-22.17-9.947-22.17-22.171 0-12.225 9.945-22.171 22.17-22.171 11.084 0 20.286 8.176 21.91 18.812a9.812 9.812 0 0 0-6.028 2.85c-2.453 2.455-3.4 5.988-2.551 9.371l-12.358 12.359a5.132 5.132 0 0 0-.739.944c-.077.001-.155.006-.233.006m28.154-10.407c-2 2-4.934 2.681-7.655 1.773a1.199 1.199 0 0 0-1.226.29l-12.848 12.848a2.64 2.64 0 0 1-1.88.779c-.71 0-1.377-.276-1.88-.779a2.64 2.64 0 0 1-.778-1.88c0-.71.276-1.376.779-1.879l12.859-12.86c.319-.318.432-.792.29-1.221-.899-2.732-.225-5.663 1.761-7.65a7.417 7.417 0 0 1 6.243-2.13l-3.847 3.846a1.203 1.203 0 0 0-.335 1.045l.682 4.09c.085.506.481.902.986.985l4.09.682c.384.065.77-.06 1.044-.334l3.846-3.846a7.417 7.417 0 0 1-2.131 6.241" fill="#006eff" fill-rule="evenodd" data-name="Path 6017"/><path d="M1153.538 4648.117a3.45 3.45 0 0 0-.333-1.475l10.74-10.739a1.199 1.199 0 0 0-1.695-1.695l-10.751 10.751a3.438 3.438 0 0 0-1.43-.312 3.469 3.469 0 1 0 3.469 3.47" fill="#00439c" fill-rule="evenodd" data-name="Path 6018"/><path d="M1150.062 4633.741a2.097 2.097 0 1 0 0-4.194 2.097 2.097 0 0 0 0 4.194" fill="#00439c" fill-rule="evenodd" data-name="Path 6019"/></g></svg>