<?xml version="1.0" standalone="no"?>
<!DOCTYPE svg PUBLIC "-//W3C//DTD SVG 20010904//EN"
 "http://www.w3.org/TR/2001/REC-SVG-20010904/DTD/svg10.dtd">
<svg version="1.0" xmlns="http://www.w3.org/2000/svg"
 width="752.000000pt" height="752.000000pt" viewBox="0 0 752.000000 752.000000"
 preserveAspectRatio="xMidYMid meet">

<g transform="translate(0.000000,752.000000) scale(0.100000,-0.100000)"
fill="#000000" stroke="none">
<path d="M2686 5994 c-34 -11 -64 -31 -102 -68 -86 -87 -105 -195 -52 -301 13
-26 338 -358 931 -952 l911 -912 -912 -915 c-729 -731 -917 -925 -935 -963
-33 -74 -30 -164 9 -234 69 -123 229 -173 350 -111 23 13 451 434 1061 1044
796 796 1027 1033 1042 1068 28 61 28 169 1 224 -13 28 -353 374 -1052 1073
-1008 1006 -1034 1032 -1087 1047 -66 19 -101 19 -165 0z"/>
</g>
</svg>
