<svg xmlns="http://www.w3.org/2000/svg" width="88.676" height="67.417" viewBox="0 0 88.676 67.417">
  <g id="Group_23088" data-name="Group 23088" transform="translate(-1107 -4254)">
    <path id="Path_5949" data-name="Path 5949" d="M73.048,328.581H7.844a1.492,1.492,0,0,1-1.491-1.491V281.205a1.492,1.492,0,0,1,1.491-1.491H22.883V282.7H9.337v42.9H71.556V282.7H58.009v-2.984H73.048a1.492,1.492,0,0,1,1.491,1.491V327.09a1.492,1.492,0,0,1-1.491,1.491" transform="translate(1110.893 3988.008)" fill="#006eff"/>
    <path id="Path_5950" data-name="Path 5950" d="M87.574,312.215H1.882a1.491,1.491,0,1,1,0-2.982H87.574a1.491,1.491,0,0,1,0,2.982" transform="translate(1106.611 4009.202)" fill="#006eff"/>
    <path id="Path_5951" data-name="Path 5951" d="M34.16,322.775a1.508,1.508,0,0,1-.515-.091c-.186-.069-18.539-7.033-18.539-24.508V278.764a1.491,1.491,0,0,1,1.489-1.491c.115,0,11.471-.072,16.51-5.109a1.492,1.492,0,0,1,2.11,0c5.037,5.037,16.394,5.109,16.508,5.109a1.492,1.492,0,0,1,1.491,1.491v19.411c0,17.475-18.353,24.44-18.539,24.508a1.515,1.515,0,0,1-.515.091M18.088,280.205v17.97c0,13.818,13.263,20.284,16.072,21.5,2.8-1.211,16.07-7.678,16.07-21.5v-17.97c-3.278-.184-11.151-1.036-16.07-4.989-4.919,3.953-12.794,4.805-16.072,4.989" transform="translate(1117.177 3982.273)" fill="#00439c"/>
    <path id="Path_5952" data-name="Path 5952" d="M26.9,294.957a1.487,1.487,0,0,1-1.113-.5l-2.744-3.078a1.492,1.492,0,1,1,2.228-1.984l1.629,1.83,7.8-8.762a1.491,1.491,0,1,1,2.228,1.983l-8.914,10.012a1.488,1.488,0,0,1-1.113.5" transform="translate(1122.608 3989.622)" fill="#00439c"/>
  </g>
</svg>
