<svg id="Layer_1" data-name="Layer 1" xmlns="http://www.w3.org/2000/svg" viewBox="0 0 56 56" fill="currentcolor">
    <path
          d="M44.26,50.4v4.11A1.57,1.57,0,0,1,42.68,56a1.59,1.59,0,0,1-1.59-1.58V50.31a10.09,10.09,0,0,0-8.71-10,18.9,18.9,0,0,1-20.5,0,10.1,10.1,0,0,0-8.72,10v4.11A1.73,1.73,0,0,1,1.49,56,1.57,1.57,0,0,1,0,54.42V50.31A13.26,13.26,0,0,1,8.78,37.85a18.77,18.77,0,0,1-4.51-7.14H3.16a1.58,1.58,0,0,1-1.58-1.58V19.65a1.58,1.58,0,0,1,1.58-1.58H4.27a18.93,18.93,0,0,1,35.71,0h1.11a1.59,1.59,0,0,1,1.59,1.58v9.48a1.59,1.59,0,0,1-1.59,1.58H40a18.66,18.66,0,0,1-4.51,7.13A13.31,13.31,0,0,1,44.26,50.4Zm-6.33-26a15.81,15.81,0,1,0-15.8,15.8A15.82,15.82,0,0,0,37.93,24.39Zm-3.16,0V26A11.07,11.07,0,0,1,23.71,37H20.55A11.07,11.07,0,0,1,9.48,26V24.39a6.34,6.34,0,0,1,6.33-6.32H28.45A6.33,6.33,0,0,1,34.77,24.39Zm0,25.29v4.83A1.57,1.57,0,0,1,33.19,56a1.58,1.58,0,0,1-1.58-1.58V49.68A1.58,1.58,0,0,0,30,48.1H14.23a1.59,1.59,0,0,0-1.59,1.58v4.74A1.6,1.6,0,0,1,11,56a1.57,1.57,0,0,1-1.5-1.58V49.68a4.75,4.75,0,0,1,4.75-4.74H30A4.74,4.74,0,0,1,34.77,49.68ZM31.61,24.39a3.16,3.16,0,0,0-3.16-3.16H15.81a3.16,3.16,0,0,0-3.17,3.16V26a7.91,7.91,0,0,0,7.91,7.9h3.16a7.91,7.91,0,0,0,7.9-7.9ZM19,51.26v3.16A1.61,1.61,0,0,1,17.3,56a1.57,1.57,0,0,1-1.49-1.58V51.26a1.58,1.58,0,1,1,3.16,0Zm9.48,0a1.58,1.58,0,1,1-1.58-1.58A1.6,1.6,0,0,1,28.45,51.26Z"/>
</svg>
