<svg id="Layer_1" data-name="Layer 1" xmlns="http://www.w3.org/2000/svg" viewBox="0 0 290.57 360.34"><defs><style>.cls-1,.cls-2{fill:none;stroke-linecap:round;stroke-linejoin:round;stroke-width:8px;}.cls-1{stroke:#006eff;}.cls-2{stroke:#00439c;}</style></defs><path class="cls-1" d="M137.25,398a28.27,28.27,0,0,0,28.19,28.19H334.56A28.27,28.27,0,0,0,362.75,398V362.75H137.25Z" transform="translate(-104.71 -69.83)"/><path class="cls-1" d="M277.3,73.83h57.26A28.28,28.28,0,0,1,362.75,102v35.24H137.25V102a28.28,28.28,0,0,1,28.19-28.19H222.7" transform="translate(-104.71 -69.83)"/><rect class="cls-1" x="32.54" y="67.42" width="225.5" height="225.5"/><path class="cls-2" d="M268.94,105.9H231.06a.36.36,0,0,1,0-.71h37.88a.36.36,0,0,1,0,.71Z" transform="translate(-104.71 -69.83)"/><circle class="cls-2" cx="145.29" cy="324.63" r="7.05"/><rect class="cls-1" x="144.93" y="137.89" width="0.7" height="98.65"/><rect class="cls-1" x="109.7" y="180.17" width="0.7" height="56.37"/><rect class="cls-1" x="74.47" y="166.08" width="0.7" height="70.47"/><rect class="cls-1" x="39.23" y="166.08" width="0.7" height="70.47"/><rect class="cls-1" x="4" y="194.27" width="0.7" height="42.28"/><rect class="cls-1" x="215.4" y="151.99" width="0.7" height="84.56"/><rect class="cls-1" x="250.64" y="151.99" width="0.7" height="84.56"/><rect class="cls-1" x="285.87" y="180.17" width="0.7" height="56.37"/><rect class="cls-1" x="180.17" y="123.8" width="0.7" height="112.75"/></svg>