<svg id="Layer_1" data-name="Layer 1" xmlns="http://www.w3.org/2000/svg" viewBox="0 0 360.61 360.49"><defs><style>.cls-1,.cls-2{fill:none;stroke-linecap:round;stroke-linejoin:round;stroke-width:8px;}.cls-1{stroke:#006eff;}.cls-2{stroke:#00439c;}</style></defs><path class="cls-1" d="M256.83,73.76a175.7,175.7,0,0,1,117.84,51.51" transform="translate(-69.69 -69.76)"/><path class="cls-1" d="M201.24,80.46A176.33,176.33,0,1,0,426.31,249.94" transform="translate(-69.69 -69.76)"/><line class="cls-1" x1="180.31" y1="180.18" x2="335.46" y2="25.03"/><circle class="cls-1" cx="180.31" cy="180.18" r="7.05"/><path class="cls-1" d="M334.77,165.16a119.74,119.74,0,0,0-153.34-13.49" transform="translate(-69.69 -69.76)"/><path class="cls-1" d="M313.47,249.93a63.47,63.47,0,1,1-18.59-44.88" transform="translate(-69.69 -69.76)"/><path class="cls-1" d="M271,367.88a119.85,119.85,0,0,0,98.93-117.95" transform="translate(-69.69 -69.76)"/><path class="cls-1" d="M151.74,181.36A119.7,119.7,0,0,0,229,367.88" transform="translate(-69.69 -69.76)"/><circle class="cls-2" cx="95.68" cy="95.55" r="21.16"/><circle class="cls-2" cx="180.31" cy="300.07" r="21.16"/></svg>