<svg xmlns="http://www.w3.org/2000/svg" width="16" height="16">
  <defs>
    <clipPath id="a">
      <path fill="#006eff" stroke="#707070" d="M920 9402h16v16h-16z"/>
    </clipPath>
  </defs>
  <g clip-path="url(#a)" transform="translate(-920 -9402)">
    <path fill="#006eff" d="M933.484 9409.906v-6.656h-10.343a.626.626 0 0 0-.625.625v10.483a1.866 1.866 0 0 1 .625-.108h.625v-9.125a.625.625 0 0 1 1.25 0v9.125h8.469v-1.219a.625.625 0 0 1 1.25 0v1.844a.625.625 0 0 1-.625.625h-10.969a.625.625 0 0 0 0 1.25h10.968a.625.625 0 0 1 0 1.25h-10.968a1.877 1.877 0 0 1-1.875-1.875v-12.25a1.877 1.877 0 0 1 1.875-1.875h10.968a.625.625 0 0 1 .625.625v7.281a.625.625 0 0 1-1.25 0zm-4.343 1.407a.625.625 0 0 0 0 1.25.625.625 0 0 0 0-1.25zm.659-1.413a.5.5 0 0 1 .295-.459 2.342 2.342 0 0 0 1.424-2.157v-.026a2.344 2.344 0 0 0-4.687.026.625.625 0 1 0 1.25 0 1.094 1.094 0 0 1 2.187 0v.018a1.093 1.093 0 0 1-.665.989 1.743 1.743 0 0 0-1.057 1.609v.04a.625.625 0 0 0 1.25 0v-.04z"/>
  </g>
</svg>