<?xml version="1.0" encoding="utf-8"?>
<!-- Generator: Adobe Illustrator 28.2.0, SVG Export Plug-In . SVG Version: 6.00 Build 0)  -->
<svg version="1.0" id="Layer_1" xmlns="http://www.w3.org/2000/svg" xmlns:xlink="http://www.w3.org/1999/xlink" x="0px" y="0px"
	 viewBox="0 0 120 120" style="enable-background:new 0 0 120 120;" xml:space="preserve">
<style type="text/css">
	.st0{fill:#FFFFFF;}
	.st1{fill:#FF0000;}
</style>
<g>
	<circle class="st0" cx="60" cy="60" r="57.6"/>
	<path id="Layer_2_00000105416033972856673280000005339326098769479842_" class="st1" d="M60,0C26.9,0,0,26.9,0,60s26.9,60,60,60
		s60-26.9,60-60S93.1,0,60,0z M63.2,91.4L63.2,91.4l-22.6,0V38.9c0-2.9-0.5-3.5-4.4-6.6L33,29.5v-0.9h32.1c9.5,0,19.2,4.4,19.2,15.8
		c0,7.1-4.4,11.8-10.9,13.8v0.2C81.2,59,87.1,65.6,87,73.5C87,87.1,75.1,91.4,63.2,91.4z M71,51.5c1.4-1.4,2.2-3.3,2.2-5.3
		c0.1-2-0.7-4-2.1-5.4c-1.9-1.8-3.8-2.7-10-2.7h-9.2v16h10.2C66.6,54.1,69.1,53.3,71,51.5L71,51.5z M62.5,63.7H51.8v18.1h10.3
		c5.8,0,13.7-1,13.7-9.2C75.8,66,71.6,63.7,62.5,63.7z"/>
</g>
</svg>
