<svg xmlns="http://www.w3.org/2000/svg" width="40" height="40" viewBox="0 0 40 40">
    <defs>
        <clipPath id="ibmgqmh4ma">
            <path stroke="#707070" d="M0 0H18V18H0z" transform="translate(.281)"/>
        </clipPath>
    </defs>
    <rect width="40" height="40" fill="#fff" rx="20"/>
    <g clip-path="url(#ibmgqmh4ma)" transform="translate(10.719 11)">
        <g>
            <path d="M22.447 22.006v-6.72c0-3.287-.708-5.819-4.55-5.819a3.989 3.989 0 0 0-3.593 1.975h-.053V9.774h-3.64v12.231h3.794v-6.056c0-1.595.3-3.137 2.277-3.137 1.946 0 1.975 1.82 1.975 3.239v5.955z" transform="translate(.33 .077) translate(-4.131 -3.686)"/>
            <path d="M.495 9.971h3.8V22.2h-3.8z" transform="translate(.33 .077) translate(-.193 -3.882)"/>
            <path d="M2.2 0a2.21 2.21 0 1 0 2.2 2.2A2.2 2.2 0 0 0 2.2 0z" transform="translate(.33 .077)"/>
        </g>
    </g>
</svg>