<svg xmlns="http://www.w3.org/2000/svg" width="40" height="40" viewBox="0 0 40 40">
    <rect width="40" height="40" fill="#fff" rx="20"/>
    <g>
        <path d="M45.468 105.548a12.266 12.266 0 0 1-1.23 5.346 10.728 10.728 0 0 1-3.551 4.345 9.873 9.873 0 0 1-11.391 0 8.756 8.756 0 0 0 .879.039 6.926 6.926 0 0 0 4.605-1.731 3.246 3.246 0 0 1-2.162-.788 4.048 4.048 0 0 1-1.284-1.981 6.444 6.444 0 0 0 .669.038 4.3 4.3 0 0 0 .984-.115 3.679 3.679 0 0 1-2.109-1.424 4.094 4.094 0 0 1-.845-2.537v-.077a3.27 3.27 0 0 0 1.653.538 4.374 4.374 0 0 1-1.2-1.462 4.232 4.232 0 0 1 .07-3.961 10.408 10.408 0 0 0 3.357 3 9.546 9.546 0 0 0 4.236 1.231 6.16 6.16 0 0 1-.07-.922 4.3 4.3 0 0 1 .493-2.02 3.806 3.806 0 0 1 1.335-1.48 3.33 3.33 0 0 1 1.829-.538 3.262 3.262 0 0 1 1.494.346 4.19 4.19 0 0 1 1.213.922 7.082 7.082 0 0 0 2.355-.962 3.975 3.975 0 0 1-1.617 2.232 7.445 7.445 0 0 0 2.109-.655 8.586 8.586 0 0 1-1.863 2.115 2.6 2.6 0 0 1 .041.501z" transform="translate(11 12) translate(-29.296 -101.048)"/>
    </g>
</svg>