<svg xmlns="http://www.w3.org/2000/svg" width="40" height="40" viewBox="0 0 40 40">
    <rect width="40" height="40" fill="#fff" rx="20"/>
    <g>
        <path d="M10 14c-.063 0-6.275 0-7.812-.416a2.452 2.452 0 0 1-1.77-1.744A26.287 26.287 0 0 1 0 7.017a26.253 26.253 0 0 1 .418-4.824A2.506 2.506 0 0 1 2.187.421C3.724 0 9.937 0 10 0s6.276 0 7.813.421a2.509 2.509 0 0 1 1.769 1.772A26.267 26.267 0 0 1 20 7.017a26.193 26.193 0 0 1-.418 4.818 2.457 2.457 0 0 1-1.769 1.744C16.275 14 10.062 14 10 14zM7.956 4.052V9.97l5.23-2.958-5.23-2.96z" transform="translate(6 9) translate(4 4)"/>
    </g>
</svg>